<svg xmlns="http://www.w3.org/2000/svg" viewBox="0 0 64 64">
  <defs>
    <linearGradient id="bg" x1="0" y1="0" x2="1" y2="1">
      <stop offset="0%" stop-color="#7C3AED"/>
      <stop offset="100%" stop-color="#2563EB"/>
    </linearGradient>
  </defs>

  <!-- Background -->
  <rect width="64" height="64" rx="16" fill="url(#bg)"/>

  <!-- Open book -->
  <path
    d="M14 19.5C20 17.5 25.5 18.5 32 22v25c-6.5-3.5-12-4.5-18-2.5V19.5Z"
    fill="none"
    stroke="white"
    stroke-width="3.5"
    stroke-linejoin="round"
  />

  <path
    d="M50 19.5C44 17.5 38.5 18.5 32 22v25c6.5-3.5 12-4.5 18-2.5V19.5Z"
    fill="none"
    stroke="white"
    stroke-width="3.5"
    stroke-linejoin="round"
  />

  <!-- AI sparkle -->
  <path
    d="M45 9l1.8 5.2L52 16l-5.2 1.8L45 23l-1.8-5.2L38 16l5.2-1.8L45 9Z"
    fill="white"
  />

  <circle cx="52" cy="27" r="2" fill="white" opacity=".9"/>
</svg>